<svg xmlns="http://www.w3.org/2000/svg" viewBox="0 0 572.94 162.73"><defs><style>.cls-1{fill:#00a7bd;}.cls-2{font-size:89.07px;fill:#404043;font-family:BauhausStd-Medium, Bauhaus Std;font-weight:500;}.cls-3{font-family:BauhausStd-Light, Bauhaus Std;font-weight:300;}</style></defs><title>LOGO_WEB_FINAL</title><g id="Capa_2" data-name="Capa 2"><g id="LOGO"><g id="logotipo"><path class="cls-1" d="M128.43,160.94c1.75,3.15,4.36,1.83,2.87-1.45C114.68,122.89,98,86.55,82.61,44.71,75,24.13,66.19-28.37,43,19.66,30.85,45.4,8.94,91.58,7.66,94.34c-.94,2-12.41,26.75-5.41,36.13,5.08,6.8,14.16-15.93,18.34-23.68a2.56,2.56,0,0,0,.11-.24c44-103,30-101.45,76.05-7C105.24,117,117.48,141.23,128.43,160.94Z"/><text class="cls-2" transform="translate(112.63 96.19)">vidal<tspan class="cls-3" x="183.13" y="0">design </tspan></text></g></g></g></svg>