<svg xmlns="http://www.w3.org/2000/svg" viewBox="0 0 542.83 162.73"><defs><style>.cls-1{fill:#00a7bd;}.cls-2{fill:#404043;}</style></defs><title>LOGO_WEB_INCRUSTADO</title><g id="Capa_2" data-name="Capa 2"><g id="LOGO"><g id="logotipo"><path class="cls-1" d="M128.43,160.94c1.75,3.15,4.36,1.83,2.87-1.45C114.68,122.89,98,86.55,82.61,44.71,75,24.13,66.19-28.37,43,19.66,30.85,45.4,8.94,91.58,7.66,94.34c-.94,2-12.41,26.75-5.41,36.13,5.08,6.8,14.16-15.93,18.34-23.68a2.56,2.56,0,0,0,.11-.24c44-103,30-101.45,76.05-7C105.24,117,117.48,141.23,128.43,160.94Z"/><path class="cls-2" d="M153.42,53.44l-15,39.28c-1.43,3.83-3.3,4.36-6.06,4.36s-4.63-.53-6.06-4.36L111.47,53.44H120l12.47,33.13,12.38-33.13Z"/><path class="cls-2" d="M164.55,39.19a4.72,4.72,0,1,1-4.72,4.72A4.58,4.58,0,0,1,164.55,39.19Zm-3.92,57V53.44h7.84V96.19Z"/><path class="cls-2" d="M222.89,33.84V73.57c0,14.07-9,23.51-21.55,23.51-13.9,0-22.09-10.69-22.09-23.33,0-11.94,9.62-21.2,20.57-21.2a24,24,0,0,1,12.12,3v8.19c-2.85-2-7.22-3.74-10.78-3.74-8.46,0-14.07,5.88-14.07,14.69S193,89.6,201.34,89.6c7.48,0,13.72-5.7,13.72-17.46V33.84Z"/><path class="cls-2" d="M264.58,96.19v-24c0-8-6.77-12.11-13.9-12.11-8.64,0-14.07,6.86-14.07,15,0,7.93,5.79,14.61,14,14.61,4.45,0,8.1-2.5,10.77-5.88V93c-3.12,2.32-6.14,4.1-11.58,4.1-12.29,0-21-10.15-21-22.71,0-12.2,8.38-21.82,22.09-21.82,13.18,0,21.56,8,21.56,20.3V96.19Z"/><path class="cls-2" d="M282,96.19V33.84h7.84V96.19Z"/><path class="cls-2" d="M339.93,33.84V75.08c0,12.74-9.08,22-20.57,22s-20.58-9.26-20.58-22,9.09-22,20.58-22c6.5,0,10.6,3.21,13.18,5.35v4c-3.65-3.83-7.57-6.14-13.18-6.14-8.55,0-17,7.92-17,18.79s8.46,18.79,17,18.79c10.15,0,17.19-9,17.19-18.79V33.84Z"/><path class="cls-2" d="M357,81.05,384.2,62.7a17.27,17.27,0,0,0-13.63-6.41c-10.77,0-18.34,9-18.34,19.06A18.44,18.44,0,0,0,389.1,76h3.56c-.27,11.22-9.44,21.11-21.37,21.11-13.19,0-22.63-9.53-22.63-21.91,0-11.93,8.91-22.09,21.91-22.09a22,22,0,0,1,18.8,10.33L359.17,83.9Z"/><path class="cls-2" d="M398.19,93h18.88c7.39,0,10.24-2.85,10.24-7.12,0-14.07-29.21-5.88-29.21-21.65,0-5.52,3.83-10.24,10.77-10.24h19v3.21h-18.7c-3.65,0-7.3,2.31-7.3,6.95,0,12.47,29.21,4.54,29.21,21.19,0,7.4-5.43,10.87-14.78,10.87H398.19Z"/><path class="cls-2" d="M444.23,39.37A2.67,2.67,0,1,1,441.56,42,2.62,2.62,0,0,1,444.23,39.37Zm-1.69,56.82V54h3.39V96.19Z"/><path class="cls-2" d="M466,111.15a30.75,30.75,0,0,0,10.68,2.14c11.4,0,18.26-5.17,18.26-20V75.08c0-9.8-7-18.79-17.19-18.79-8.55,0-17,7.92-17,18.79s8.46,18.79,17,18.79c5.61,0,9.53-2.31,13.18-6.14v4c-2.58,2.13-6.68,5.34-13.18,5.34-11.49,0-20.57-9.26-20.57-22s9.08-22,20.57-22,20.58,9.26,20.58,22V95.66c0,13.18-8.91,20.84-21.2,20.84a35.65,35.65,0,0,1-12.2-2.14Z"/><path class="cls-2" d="M539.45,96.19V70.9c0-8.82-6.15-14.61-13.54-14.61s-13.54,5.79-13.54,14.61V96.19H509V70.45c0-10.42,7.48-17.37,16.92-17.37s16.92,7,16.92,17.37V96.19Z"/></g></g></g></svg>